<?xml version="1.0" encoding="UTF-8"?>
<svg width="100" height="100" viewBox="0 0 100 100" xmlns="http://www.w3.org/2000/svg">
  <!-- Radio body -->
  <rect x="10" y="30" width="80" height="50" rx="5" ry="5" fill="#7c3aed" />
  
  <!-- Speaker grille -->
  <circle cx="30" cy="55" r="15" fill="#f8fafc" />
  <circle cx="30" cy="55" r="12" fill="#7c3aed" />
  <circle cx="30" cy="55" r="9" fill="#f8fafc" />
  <circle cx="30" cy="55" r="6" fill="#7c3aed" />
  <circle cx="30" cy="55" r="3" fill="#f8fafc" />
  
  <!-- Display screen -->
  <rect x="50" y="40" width="30" height="15" rx="2" ry="2" fill="#f8fafc" />
  
  <!-- Control knobs -->
  <circle cx="55" cy="65" r="4" fill="#f8fafc" />
  <circle cx="70" cy="65" r="4" fill="#f8fafc" />
  
  <!-- Antenna -->
  <line x1="70" y1="30" x2="70" y2="10" stroke="#7c3aed" stroke-width="3" />
  <circle cx="70" cy="8" r="3" fill="#7c3aed" />
  
  <!-- Sound waves -->
  <path d="M 85,40 C 90,40 95,45 95,50 C 95,55 90,60 85,60" fill="none" stroke="#f8fafc" stroke-width="2" />
  <path d="M 85,45 C 88,45 90,47 90,50 C 90,53 88,55 85,55" fill="none" stroke="#f8fafc" stroke-width="2" />
</svg>
